<svg xmlns="http://www.w3.org/2000/svg" width="14" height="14" viewBox="0 0 14 14"><g><g><path fill="#989cb2" d="M13.544 9.815l.01.016-6 4-.01-.016a.97.97 0 0 1-.544.183.97.97 0 0 1-.545-.183l-.01.015-6-4 .01-.015A.982.982 0 0 1 0 8.998a1 1 0 0 1 1-1c.205 0 .385.077.544.184l.01-.015L7 11.797l5.445-3.63.01.015A.966.966 0 0 1 13 7.998a1 1 0 0 1 1 1 .982.982 0 0 1-.456.817zm0-4l.01.015-6 4-.01-.015A.97.97 0 0 1 7 9.998a.97.97 0 0 1-.545-.183l-.01.016-6-4 .01-.016A.983.983 0 0 1 0 4.998c0-.347.187-.637.455-.817l-.01-.015 6-4 .01.015A.975.975 0 0 1 7-.002c.205 0 .385.077.544.183l.01-.015 6 4-.01.015c.268.18.456.47.456.817a.983.983 0 0 1-.456.817zM7 2.2L2.802 4.998 7 7.797 9.71 5.99l1.487-.992z"/></g></g></svg>