<svg xmlns="http://www.w3.org/2000/svg" width="21" height="21" viewBox="0 0 21 21"><g><g><path fill="#989cb2" d="M4-.002h13a4 4 0 0 1 4 3.999v13a4 4 0 0 1-4 4H4a4 4 0 0 1-4-4v-13a4 4 0 0 1 4-4zm11.847 8v-1.5h-.614a.877.877 0 0 0-.785-.519h-1.709V5.9c0-.82-.412-1.22-1.26-1.22H9.52c-.847 0-1.26.4-1.26 1.22v.08H6.553a.877.877 0 0 0-.786.52h-.614v1.498h.84v7.957c0 .575.502 1.042 1.12 1.042h6.776c.617 0 1.12-.467 1.12-1.042V7.997zm-6.84 7.125h-.992V8.88h.992zm1.989 0h-.993V8.88h.993zm2.02 0h-1.024V8.88h1.023z"/></g></g></svg>